<?xml version="1.0" encoding="UTF-8" standalone="no"?>
<svg
   viewBox="0 0 24 24"
   version="1.1"
   id="svg4"
   sodipodi:docname="note-remove.svg"
   inkscape:version="1.1.2 (0a00cf5339, 2022-02-04)"
   xmlns:inkscape="http://www.inkscape.org/namespaces/inkscape"
   xmlns:sodipodi="http://sodipodi.sourceforge.net/DTD/sodipodi-0.dtd"
   xmlns="http://www.w3.org/2000/svg"
   xmlns:svg="http://www.w3.org/2000/svg">
  <defs
     id="defs8" />
  <sodipodi:namedview
     id="namedview6"
     pagecolor="#ffffff"
     bordercolor="#666666"
     borderopacity="1.0"
     inkscape:pageshadow="2"
     inkscape:pageopacity="0.0"
     inkscape:pagecheckerboard="0"
     showgrid="false"
     inkscape:zoom="19.583333"
     inkscape:cx="12"
     inkscape:cy="12.025532"
     inkscape:window-width="1366"
     inkscape:window-height="704"
     inkscape:window-x="0"
     inkscape:window-y="0"
     inkscape:window-maximized="1"
     inkscape:current-layer="svg4" />
  <path
     d="m 18.19734,13.183511 c 0.7,0 1.37,0.13 2,0.35 V 9.1835106 l -6,-6 H 4.1973404 c -1.11,0 -2,0.89 -2,2 V 19.183511 c 0,1.11 0.9,2 2,2 H 12.54734 c -0.22,-0.63 -0.35,-1.3 -0.35,-2 0,-3.31 2.69,-6 6,-6 m -5,-8.5000004 5.5,5.5000004 h -5.5 V 4.6835106 m 6.41,14.5000004 2.13,2.12 -1.42,1.42 -2.12,-2.13 -2.12,2.13 -1.41,-1.42 2.12,-2.12 -2.12,-2.12 1.41,-1.41 2.12,2.12 2.12,-2.12 1.42,1.41 z"
     id="path2"
     style="fill:#efefef;fill-opacity:0.6382004" />
</svg>
